<?xml version="1.0" standalone="no"?>
<!DOCTYPE svg PUBLIC "-//W3C//DTD SVG 20010904//EN"
 "http://www.w3.org/TR/2001/REC-SVG-20010904/DTD/svg10.dtd">
<svg version="1.0" xmlns="http://www.w3.org/2000/svg"
 width="110.000000pt" height="110.000000pt" viewBox="0 0 110.000000 110.000000"
 preserveAspectRatio="xMidYMid meet">

<g transform="translate(0.000000,110.000000) scale(0.100000,-0.100000)"
fill="#000000" stroke="none">
<path d="M370 1071 c-60 -31 -80 -72 -80 -162 l0 -79 -37 -19 c-48 -24 -78
-56 -98 -103 -12 -30 -15 -84 -15 -290 0 -275 5 -304 61 -355 53 -49 81 -53
349 -53 268 0 296 4 349 53 56 51 61 80 61 355 0 206 -3 260 -15 290 -20 47
-50 79 -97 103 l-38 19 0 79 c0 90 -20 131 -80 162 -51 28 -309 28 -360 0z
m353 -52 c32 -25 50 -79 45 -139 l-3 -45 -215 0 -215 0 -3 54 c-4 63 11 104
46 131 22 18 41 20 172 20 133 0 150 -2 173 -21z m132 -269 c53 -50 55 -59 55
-332 0 -235 -2 -255 -20 -286 -11 -18 -34 -41 -52 -52 -31 -19 -51 -20 -288
-20 -237 0 -257 1 -288 20 -18 11 -41 34 -52 52 -18 31 -20 51 -20 286 0 270
2 283 52 328 12 12 30 24 38 27 8 3 135 5 282 4 l266 -2 27 -25z"/>
</g>
</svg>
